<svg width="111" height="111" viewBox="0 0 111 111" fill="none" xmlns="http://www.w3.org/2000/svg">
<circle cx="55.5" cy="55.5" r="55.5" fill="#EDEDED"/>
<g clip-path="url(#clip0_6_5)">
<path d="M23.7768 70.968C23.2795 69.7693 22.6603 68.5777 22.4792 67.2845C20.0935 50.61 33.6977 37.0908 46.0455 31.9559C58.3931 26.8211 72.6102 34.9891 81.039 26.2213C83.1448 23.8435 85.2881 21.5918 88.4898 21.5751C89.8244 21.6413 90.9357 22.2685 91.5036 23.375C102.039 44.9542 86.9868 70.5412 69.9884 79.6327C59.2009 84.9647 48.0385 86.1378 37.59 82.5209C34.6845 81.8317 32.3557 78.793 29.3439 78.7536C27.267 79.9189 25.542 83.7158 24.1326 85.8067C22.4909 88.6559 19.2221 89.4092 16.8701 86.916C10.0102 80.1556 24.2663 74.1556 23.7768 70.968V70.968ZM32.9439 68.2054C34.4171 69.3956 36.5424 69.0582 37.6739 67.8706C46.7199 56.91 58.969 52.1015 72.2907 52.4666C74.2536 52.5806 75.6805 50.9909 75.8067 49.2854C75.8461 47.26 74.2875 45.8903 72.5417 45.7693C56.4408 44.8743 42.4721 51.9736 32.6088 63.4336C31.3596 64.9936 31.5864 67.0692 32.9439 68.2054V68.2054Z" fill="#33AF8A"/>
</g>
<defs>
<clipPath id="clip0_6_5">
<rect width="80" height="80" fill="white" transform="translate(15 15)"/>
</clipPath>
</defs>
</svg>
